<svg width="26" height="26" viewBox="0 0 26 26" fill="none" xmlns="http://www.w3.org/2000/svg">
<path d="M2 0.5H24C24.8284 0.5 25.5 1.17157 25.5 2V24C25.5 24.8284 24.8284 25.5 24 25.5H2C1.17157 25.5 0.5 24.8284 0.5 24V2C0.5 1.17157 1.17157 0.5 2 0.5Z" fill="#6C63FF" stroke="#6C63FF"/>
<mask id="path-2-inside-1_440_36" fill="white">
<path d="M10.9978 18.6488L6.00002 13.7476L15.5593 4L20.5571 8.90124L10.9978 18.6488Z"/>
</mask>
<path d="M10.9978 18.6488L9.59745 20.0767L11.0254 21.4771L12.4257 20.0491L10.9978 18.6488ZM10.9978 18.6488L12.3982 17.2209L7.40037 12.3196L6.00002 13.7476L4.59966 15.1755L9.59745 20.0767L10.9978 18.6488ZM20.5571 8.90124L19.1291 7.50089L9.56986 17.2484L10.9978 18.6488L12.4257 20.0491L21.985 10.3016L20.5571 8.90124Z" fill="#F7F7F7" mask="url(#path-2-inside-1_440_36)"/>
</svg>
